<?xml version="1.0" encoding="UTF-8"?>
<svg id="Layer_1" xmlns="http://www.w3.org/2000/svg" xmlns:xlink="http://www.w3.org/1999/xlink" version="1.1" viewBox="0 0 674 674">
  <!-- Generator: Adobe Illustrator 29.2.1, SVG Export Plug-In . SVG Version: 2.1.0 Build 116)  -->
  <defs>
    <style>
      .st0 {
        fill: none;
      }

      .st1 {
        fill: #001bc3;
      }

      .st2 {
        fill: #fff;
      }

      .st3 {
        fill: #f2f2f2;
      }

      .st4 {
        clip-path: url(#clippath);
      }
    </style>
    <clipPath id="clippath">
      <rect class="st0" x="54.37" width="565.26" height="674"/>
    </clipPath>
  </defs>
  <g class="st4">
    <path class="st1" d="M336.81,674s282.81-36.88,282.81-370.12V0H54.37v303.88c0,334,282.44,370.12,282.44,370.12"/>
    <path class="st2" d="M596.56,21.98H75.13l.13,284.5c0,308.1,260.55,345.97,260.55,345.97,0,0,260.88-38.57,260.88-345.97l-.13-284.5ZM574.83,43.72l.09,195.84H96.97l-.09-195.84h477.95ZM454.82,576.14c-52.4,39.13-105.81,51.61-119.08,54.23-13.19-2.54-65.17-14.47-117.32-52.88-80.57-59.35-121.43-150.53-121.43-271.03l-.02-45.16h477.95l.02,45.17c0,119.42-40.42,210.15-120.12,269.66"/>
    <path class="st3" d="M446.18,583.45h1.2v-.84c-.4.28-.8.56-1.2.84"/>
    <path class="st3" d="M226.09,446.06v109.99c.84.65,1.62,1.35,2.46,1.99,13.13,9.97,26.3,17.99,38.79,24.53v-145.94c21.07-3.85,45.23-6.77,70.1-6.77s49.08,2.42,68.68,5.74v146.59c12.4-6.53,25.46-14.52,38.47-24.4.96-.72,1.84-1.51,2.78-2.25v-110.58c17.46,5.05,27.3,9.45,27.51,9.54l17.29-37.46c-1.27-.58-17.33-7.86-44.79-14.91v-119.43h-41.26v111.05c-20.08-3.06-43.15-5.16-68.68-5.16s-48.76,2.55-70.1,6.1v-111.99h-41.26v120.61c-25.52,6.42-42.07,12.63-43.48,13.17l14.65,38.57c.27-.1,11.19-4.17,28.83-9.02"/>
    <path class="st2" d="M136.21,165.53h2.4c2.53,0,2.53,1.09,2.53,1.55v25.58c0,3.17-.96,5.38-2.93,6.74-2.03,1.41-4.56,2.12-7.52,2.12-6.99,0-10.38-2.89-10.38-8.86v-25.58c0-.46,0-1.55,2.53-1.55h2.46v-3.84h-20.77v3.84h2.41c2.53,0,2.53,1.09,2.53,1.55v24.91c0,4.99,1.68,8.71,5.01,11.04,3.24,2.28,7.96,3.43,14.02,3.43s10.3-1.21,13.38-3.6c3.14-2.44,4.73-6.09,4.73-10.87v-24.91c0-.46,0-1.55,2.53-1.55h2.46v-3.84h-15.4v3.84Z"/>
    <path class="st2" d="M122.41,158.47c1.34,0,2.45-.43,3.28-1.26.84-.84,1.26-1.9,1.26-3.16s-.42-2.39-1.25-3.24c-.84-.86-1.95-1.3-3.29-1.3s-2.44.44-3.26,1.31c-.81.85-1.21,1.94-1.21,3.23s.41,2.31,1.22,3.15c.82.84,1.91,1.27,3.26,1.27"/>
    <path class="st2" d="M136.6,158.47c1.3,0,2.39-.43,3.22-1.26.84-.84,1.26-1.9,1.26-3.15s-.42-2.39-1.25-3.24c-.84-.86-1.92-1.3-3.23-1.3-1.38,0-2.5.43-3.32,1.27-.81.84-1.21,1.94-1.21,3.27,0,1.26.41,2.31,1.21,3.15.82.84,1.93,1.27,3.32,1.27"/>
    <path class="st2" d="M184.38,165.53h2.65c2.65,0,2.65,1.09,2.65,1.55v24.12l-20.23-29.18-.23-.33h-15.77v3.84h2.58c1.28,0,1.9.23,2.2.43.22.14.51.41.51,1.13v33.44c0,.52-.16.86-.52,1.1-.3.21-.93.45-2.19.45h-2.58v3.78h16.01v-3.78h-2.65c-1.22,0-1.82-.23-2.11-.42-.2-.14-.48-.41-.48-1.13v-30.23l24.85,35.56h6.09v-38.77c0-.46,0-1.55,2.65-1.55h2.65v-3.84h-16.07v3.84Z"/>
    <path class="st2" d="M213.95,158.68c1.23,0,2.24-.4,3.02-1.18.78-.78,1.18-1.78,1.18-2.96s-.39-2.24-1.17-3.05c-.78-.8-1.8-1.21-3.03-1.21s-2.3.41-3.06,1.22c-.75.8-1.14,1.83-1.14,3.04s.38,2.17,1.14,2.95c.76.78,1.79,1.18,3.06,1.18"/>
    <path class="st2" d="M203.6,165.26h2.31c2.62,0,2.93,1.04,2.93,1.83v33.43c0,.79-.3,1.83-2.93,1.83h-2.31v3.22h20.82v-3.22h-2.31c-1.08,0-1.86-.16-2.35-.49-.43-.29-.64-.72-.64-1.34v-33.43c0-.65.2-1.09.64-1.36.48-.31,1.27-.47,2.35-.47h2.31v-3.29h-20.82v3.29Z"/>
    <path class="st2" d="M259.23,165.53h1.98c.53,0,1.01.13,1.49.39.35.19.49.42.49.8,0,.23-.03.36-.08.47l-9.69,26.63-9.5-26.87c-.09-.35-.1-.47-.1-.47,0-.27.1-.44.35-.61.34-.22.83-.33,1.44-.33h2.03v-3.84h-20.15v3.84h2.03c.6,0,1.16.14,1.68.42.47.26.81.66,1.03,1.22l15.11,38.8h8.04l14.8-38.68c.21-.55.62-.96,1.26-1.26.72-.34,1.43-.5,2.17-.5h1.73v-3.84h-16.14v3.84Z"/>
    <path class="st2" d="M311.8,193.36c-.31,2.37-.89,4.3-1.71,5.75-.73,1.29-1.88,1.93-3.51,1.93h-13.13v-15.71h8.32c1.17,0,1.55.52,1.73.97.38.89.64,2.22.79,3.94l.06.7h3.34v-16.08h-3.34l-.06.7c-.15,1.73-.42,3.05-.79,3.94-.19.45-.57.97-1.74.97h-8.32v-13.89h11.79c3.22,0,4.98,2.44,5.39,7.46l.05.7h3.78v-13.04h-37.09v3.84h2.58c1.27,0,1.88.23,2.16.42.21.14.49.41.49,1.14v33.43c0,.72-.28.99-.48,1.13-.29.19-.9.42-2.17.42h-2.58v3.78h36.95l1.38-13.16h-3.83l-.09.66Z"/>
    <path class="st2" d="M356.3,202.03c-.8-.78-1.44-1.74-1.9-2.84-.49-1.14-.99-2.66-1.51-4.51-.54-1.95-1.14-3.56-1.79-4.77-.57-1.06-1.43-1.95-2.57-2.64,2.49-.86,4.34-2.27,5.49-4.22,1.24-2.11,1.86-4.86,1.86-8.17,0-4.29-1.12-7.61-3.32-9.86-2.2-2.25-5.93-3.39-11.07-3.39h-23.16v3.03h2.15c1.11,0,1.93.17,2.44.51.48.32.71.82.71,1.55v34.44c0,.69-.24,1.18-.72,1.52-.51.36-1.33.54-2.44.54h-2.15v2.98h20.51v-2.98h-2.22c-1.06,0-1.85-.17-2.34-.51-.46-.31-.68-.82-.68-1.55v-12.91h6.31c.8.66,1.39,1.54,1.76,2.6.39,1.14.8,2.75,1.21,4.78.29,1.53.59,2.87.92,3.98.67,2.32,1.65,4.01,2.91,5.03,1.27,1.02,3.18,1.55,5.69,1.55h7.2v-2.97h-.32c-1.21-.05-2.21-.45-2.98-1.2M333.59,165.73h5.7c2.35,0,4.09.73,5.16,2.19,1.1,1.48,1.65,3.83,1.65,6.96s-.56,5.55-1.65,7.05c-1.07,1.47-2.8,2.22-5.16,2.22h-5.7v-18.42Z"/>
    <path class="st2" d="M389.99,182.14c-1.86-.97-4.3-2.01-7.22-3.09-2.27-.86-4.03-1.6-5.25-2.19-1.19-.58-2.22-1.34-3.03-2.26-.8-.89-1.2-2.01-1.2-3.32,0-1.85.72-3.24,2.2-4.27,1.5-1.03,3.4-1.56,5.63-1.56,2.75,0,5.16.78,7.14,2.32,1.97,1.53,3.15,3.85,3.49,6.89l.03.29h3.3v-13.39h-3.82v3c0,.21-.04.28-.04.29-.01,0-.11-.02-.3-.16-.22-.15-.37-.26-.43-.29-1.41-.97-3.02-1.74-4.8-2.31-1.79-.57-4.07-.85-6.77-.85-4.8,0-8.66.97-11.48,2.88-2.87,1.94-4.31,4.82-4.31,8.57,0,2.58.63,4.77,1.89,6.5,1.24,1.71,2.76,3.07,4.53,4.04,1.72.95,4.05,2.02,6.95,3.18,2.34.91,4.22,1.72,5.57,2.41,1.33.68,2.45,1.57,3.34,2.65.86,1.06,1.29,2.34,1.29,3.83,0,2.44-.81,4.2-2.48,5.39-1.69,1.2-3.9,1.81-6.58,1.81-1.82,0-3.6-.35-5.3-1.03-1.69-.68-3.15-1.74-4.35-3.17-1.19-1.41-1.91-3.16-2.15-5.2l-.03-.29h-3.3v13.38h3.76v-3.06c0-.16.03-.29.09-.42.02-.03.03-.06.03-.06.12,0,.32.07.64.31,1.56,1.13,3.33,2.03,5.27,2.69,1.93.65,4.5.98,7.66.98,4.95,0,9.04-1.07,12.15-3.19,3.15-2.15,4.74-5.43,4.74-9.75,0-2.91-.68-5.35-2.01-7.24-1.33-1.88-2.96-3.33-4.87-4.33"/>
    <path class="st2" d="M409.94,158.68c1.23,0,2.24-.4,3.02-1.18.78-.78,1.18-1.78,1.18-2.96s-.39-2.24-1.17-3.05c-.78-.8-1.8-1.21-3.03-1.21s-2.3.41-3.06,1.22c-.75.8-1.14,1.83-1.14,3.04s.38,2.17,1.14,2.95c.76.78,1.79,1.18,3.06,1.18"/>
    <path class="st2" d="M399.59,165.26h2.31c2.62,0,2.93,1.04,2.93,1.83v33.43c0,.79-.3,1.83-2.93,1.83h-2.31v3.22h20.82v-3.22h-2.31c-1.08,0-1.86-.16-2.35-.49-.43-.29-.64-.72-.64-1.34v-33.43c0-.65.2-1.09.64-1.36.48-.31,1.27-.47,2.35-.47h2.31v-3.29h-20.82v3.29Z"/>
    <path class="st2" d="M423.43,176.8h3.83v-.75c.05-2.02.41-4.21,1.08-6.5.87-2.99,2.32-2.99,2.8-2.99h7.34v33.96c0,.52-.16.86-.52,1.1-.3.21-.93.45-2.19.45h-2.58v3.78h21.43v-3.78h-2.65c-2.65,0-2.65-1.09-2.65-1.55v-33.96h7.28c.48,0,1.93,0,2.8,2.99.67,2.29,1.03,4.47,1.07,6.5v.75h3.89v-15.11h-40.93v15.11Z"/>
    <path class="st2" d="M502.31,193.36c-.31,2.37-.89,4.3-1.71,5.75-.73,1.29-1.88,1.93-3.51,1.93h-13.13v-15.71h8.32c1.17,0,1.55.52,1.73.97.38.89.64,2.22.79,3.94l.06.7h3.34v-16.08h-3.34l-.06.7c-.15,1.73-.42,3.05-.79,3.94-.19.45-.57.97-1.74.97h-8.32v-13.89h11.79c3.22,0,4.98,2.44,5.39,7.46l.05.7h3.78v-13.04h-37.09v3.84h2.58c1.27,0,1.88.23,2.16.42.21.14.49.41.49,1.14v33.43c0,.72-.28.99-.48,1.13-.29.19-.9.42-2.17.42h-2.58v3.78h36.95l1.38-13.16h-3.83l-.09.66Z"/>
    <path class="st2" d="M536.34,182.14c-1.86-.97-4.3-2.01-7.22-3.09-2.27-.86-4.03-1.6-5.25-2.19-1.19-.58-2.22-1.34-3.03-2.26-.8-.89-1.2-2.01-1.2-3.32,0-1.85.72-3.24,2.2-4.27,1.5-1.03,3.4-1.56,5.63-1.56,2.75,0,5.16.78,7.14,2.32,1.97,1.53,3.15,3.85,3.49,6.89l.03.29h3.3v-13.39h-3.82v3c0,.21-.04.28-.04.29-.01,0-.11-.02-.3-.16-.22-.15-.37-.26-.43-.29-1.41-.97-3.02-1.74-4.8-2.31-1.79-.57-4.07-.85-6.77-.85-4.8,0-8.66.97-11.48,2.88-2.87,1.94-4.31,4.82-4.31,8.57,0,2.58.63,4.77,1.89,6.5,1.24,1.71,2.76,3.07,4.53,4.04,1.72.95,4.05,2.02,6.95,3.18,2.34.91,4.22,1.72,5.57,2.41,1.33.68,2.45,1.57,3.34,2.65.86,1.06,1.29,2.34,1.29,3.83,0,2.44-.81,4.2-2.48,5.39-1.69,1.2-3.9,1.81-6.58,1.81-1.82,0-3.6-.35-5.3-1.03-1.69-.68-3.15-1.74-4.35-3.17-1.19-1.41-1.91-3.16-2.15-5.2l-.03-.29h-3.3v13.38h3.76v-3.06c0-.16.03-.29.09-.42.02-.03.03-.06.03-.06.12,0,.32.07.64.31,1.56,1.13,3.33,2.03,5.27,2.69,1.93.65,4.5.98,7.66.98,4.95,0,9.04-1.07,12.15-3.19,3.15-2.15,4.74-5.43,4.74-9.75,0-2.91-.68-5.35-2.01-7.24-1.33-1.88-2.96-3.33-4.87-4.33"/>
    <path class="st2" d="M562.1,165.73c.48-.31,1.28-.47,2.35-.47h2.31v-3.29h-20.82v3.29h2.31c2.62,0,2.93,1.04,2.93,1.83v33.43c0,.79-.3,1.83-2.93,1.83h-2.31v3.22h20.82v-3.22h-2.31c-1.07,0-1.86-.16-2.35-.49-.43-.3-.64-.72-.64-1.34v-33.43c0-.65.2-1.09.64-1.36"/>
    <path class="st2" d="M556.29,158.68c1.23,0,2.24-.4,3.02-1.18.78-.78,1.18-1.78,1.18-2.96s-.39-2.24-1.17-3.05c-.78-.8-1.8-1.21-3.03-1.21s-2.3.41-3.06,1.22c-.75.8-1.14,1.83-1.14,3.04s.38,2.17,1.14,2.95c.76.78,1.79,1.18,3.06,1.18"/>
    <path class="st2" d="M261.3,84.37h2.59c1.28,0,1.91.23,2.22.43.22.14.51.42.51,1.14v13.62h-17.08v-13.62c0-.73.29-1,.49-1.14.29-.19.9-.42,2.12-.42h2.66v-3.85h-21.46v3.85h2.59c1.29,0,1.91.23,2.22.43.22.14.51.42.51,1.14v33.59c0,.52-.16.87-.53,1.11-.3.21-.93.45-2.2.45h-2.59v3.78h21.46v-3.78h-2.66c-1.22,0-1.82-.23-2.11-.43-.21-.14-.49-.41-.49-1.14v-15.08h17.08v15.08c0,.52-.17.87-.53,1.11-.43.29-1.19.45-2.2.45h-2.59v3.78h21.52v-3.78h-2.66c-2.66,0-2.66-1.1-2.66-1.57v-33.59c0-.46,0-1.56,2.66-1.56h2.66v-3.85h-21.52v3.85Z"/>
    <path class="st2" d="M369.1,111.58c-.28,1.95-.89,3.92-1.83,5.86-.85,1.75-1.97,2.6-3.42,2.6h-10.95c-2.51,0-2.85-1.07-2.85-2.12v-31.99c0-.47,0-1.56,2.66-1.56h2.59v-3.85h-21.46v3.85h2.59c1.29,0,1.92.23,2.22.43.22.14.51.41.51,1.14v33.59c0,.67-.28.95-.53,1.11-.3.21-.93.45-2.2.45h-2.59v3.79h37.97l1.38-13.94h-4.01l-.1.66Z"/>
    <path class="st2" d="M385.7,77.76c1.31,0,2.39-.43,3.23-1.26.84-.84,1.27-1.91,1.27-3.17s-.42-2.4-1.26-3.26c-.84-.86-1.93-1.3-3.24-1.3s-2.46.44-3.28,1.31c-.81.86-1.22,1.95-1.22,3.25s.41,2.32,1.22,3.15c.81.85,1.91,1.28,3.27,1.28"/>
    <path class="st2" d="M375.03,84.37h2.59c2.67,0,2.67,1.1,2.67,1.56v33.59c0,.47,0,1.57-2.67,1.57h-2.59v3.78h21.46v-3.78h-2.59c-1,0-1.77-.16-2.2-.45-.36-.24-.53-.59-.53-1.11v-33.59c0-.72.29-.99.51-1.13.31-.2.94-.43,2.22-.43h2.59v-3.85h-21.46v3.85Z"/>
    <path class="st2" d="M435.35,112.77l-.19.48c-1.02,2.54-2.65,4.41-4.84,5.54-2.25,1.16-4.76,1.75-7.48,1.75-4.09,0-7.11-1.5-9.22-4.59-2.15-3.14-3.23-7.59-3.23-13.24s1.21-9.97,3.6-13.12c2.38-3.13,5.58-4.65,9.76-4.65,2.89,0,5.42.74,7.52,2.22,2.08,1.45,3.28,3.59,3.66,6.54l.09.67h4.06v-14.13h-4.64v3.27c-3.68-2.37-7.97-3.57-12.76-3.57s-8.86.94-12.19,2.79c-3.34,1.86-5.89,4.55-7.59,7.98-1.67,3.4-2.52,7.44-2.52,12.02,0,7.02,1.9,12.62,5.67,16.67,3.79,4.06,9.36,6.12,16.56,6.12,4.9,0,9.01-1.1,12.2-3.25,3.23-2.18,5.28-5.05,6.1-8.53l.22-.93h-4.78ZM434.51,83.78c.06-.04.12-.08.21-.07l-.36.6s0,0-.01,0l.16-.53Z"/>
    <path class="st2" d="M416.86,131.91c-1.31,2.32-3.04,5.45-3.04,5.45h5.51c.66,0,1.29-.24,1.78-.69l7.63-8.14h-11.37s.81,1.05-.5,3.37"/>
    <path class="st2" d="M330.7,121.08c-.6,0-1.16-.14-1.68-.43-.48-.26-.81-.66-1.04-1.23l-15.49-38.95h-8.01l-15.24,38.83c-.22.56-.63.97-1.27,1.28-.72.34-1.43.5-2.18.5h-1.73v3.79h16.26v-3.79h-2.05c-.58,0-1.07-.13-1.47-.4-.32-.2-.45-.46-.45-.86,0-.24.05-.51.14-.77l2.2-5.93h15.21l1.97,5.39c.25.64.38,1.2.38,1.68s-.17.57-.26.63c-.11.08-.49.26-1.49.26h-1.98v3.79h20.24v-3.79h-2.05ZM300.54,108.3l5.87-15.64,5.71,15.64h-11.58Z"/>
  </g>
</svg>